<?xml version="1.0" encoding="utf-8"?>
<!-- Generator: Adobe Illustrator 25.2.0, SVG Export Plug-In . SVG Version: 6.00 Build 0)  -->
<svg version="1.1" id="Layer_1" xmlns="http://www.w3.org/2000/svg" xmlns:xlink="http://www.w3.org/1999/xlink" x="0px" y="0px"
	 viewBox="0 0 208.1 5.7" style="enable-background:new 0 0 208.1 5.7;" xml:space="preserve">
<style type="text/css">
	.st0{fill:none;stroke:#B665A8;stroke-miterlimit:10;}
</style>
<path class="st0" d="M0,3c0.5,0.8,1.4,1.3,2.3,1.3c1.2,0,2.4-0.8,2.7-2c0.2-0.5,0.7-0.9,1.3-0.9h0.7c0.6,0,1.1,0.3,1.3,0.9
	c0.4,1.1,1.4,2,2.7,2c1.2,0,2.4-0.8,2.7-2c0.2-0.5,0.7-0.9,1.3-0.9h0.7c0.6,0,1.1,0.3,1.3,0.9c0.4,1.1,1.4,2,2.7,2
	c1.2,0,2.4-0.8,2.7-2c0.2-0.5,0.7-0.9,1.3-0.9h0.7c0.6,0,1.1,0.3,1.3,0.9c0.4,1.1,1.4,2,2.7,2s2.4-0.8,2.7-2
	c0.2-0.5,0.7-0.9,1.3-0.9h0.7c0.6,0,1.1,0.3,1.3,0.9c0.4,1.1,1.4,2,2.7,2s2.4-0.8,2.7-2c0.2-0.5,0.7-0.9,1.3-0.9H42
	c0.6,0,1.1,0.3,1.3,0.9c0.4,1.1,1.4,2,2.7,2s2.4-0.8,2.7-2c0.2-0.5,0.7-0.9,1.3-0.9h0.6c0.6,0,1.1,0.3,1.3,0.9c0.4,1.1,1.4,2,2.7,2
	c1.2,0,2.4-0.8,2.7-2c0.2-0.5,0.7-0.9,1.3-0.9h0.7c0.6,0,1.1,0.3,1.3,0.9c0.4,1.1,1.4,2,2.7,2c1.2,0,2.4-0.8,2.7-2
	c0.2-0.5,0.7-0.9,1.3-0.9h0.7c0.6,0,1.1,0.3,1.3,0.9c0.4,1.1,1.4,2,2.7,2c1.2,0,2.4-0.8,2.7-2c0.2-0.5,0.7-0.9,1.3-0.9h0.7
	c0.6,0,1.1,0.3,1.3,0.9c0.4,1.1,1.4,2,2.7,2c1.2,0,2.4-0.8,2.7-2c0.2-0.5,0.7-0.9,1.3-0.9h0.7c0.6,0,1.1,0.3,1.3,0.9
	c0.4,1.1,1.4,2,2.7,2c1.2,0,2.4-0.8,2.7-2c0.2-0.5,0.7-0.9,1.3-0.9h0.7c0.6,0,1.1,0.3,1.3,0.9c0.4,1.1,1.4,2,2.7,2s2.4-0.8,2.7-2
	c0.2-0.5,0.7-0.9,1.3-0.9h0.7c0.6,0,1.1,0.3,1.3,0.9c0.4,1.1,1.4,2,2.7,2c1.2,0,2.4-0.8,2.7-2c0.2-0.5,0.7-0.9,1.3-0.9h0.7
	c0.6,0,1.1,0.3,1.3,0.9c0.4,1.1,1.4,2,2.7,2c1.2,0,2.4-0.8,2.7-2c0.2-0.5,0.7-0.9,1.3-0.9h0.7c0.6,0,1.1,0.3,1.3,0.9
	c0.4,1,1.2,1.8,2.2,1.9c0.1,0,0.3,0,0.4,0c1.2,0,2.4-0.8,2.7-2c0.2-0.5,0.7-0.9,1.3-0.9h0.7c0.6,0,1.1,0.3,1.3,0.9
	c0.4,1.1,1.4,2,2.7,2c1.2,0,2.4-0.8,2.7-2c0.2-0.5,0.7-0.9,1.3-0.9h0.6c0.1,0,0.2,0,0.3,0.1c0.6,0.1,1,0.6,1,1.2
	c0.5,0.9,1.4,1.5,2.6,1.5c1.2,0,2.4-0.8,2.7-2c0.2-0.5,0.7-0.9,1.3-0.9h0.7c0.6,0,1.1,0.3,1.3,0.9c0.4,1.1,1.4,2,2.7,2
	c1.2,0,2.4-0.8,2.7-2c0.2-0.5,0.7-0.9,1.3-0.9h0.7c0.6,0,1.1,0.3,1.3,0.9c0.4,1.1,1.4,2,2.7,2c1.2,0,2.4-0.8,2.7-2
	c0.2-0.5,0.7-0.9,1.3-0.9h0.7c0.6,0,1.1,0.3,1.3,0.9c0.4,1.1,1.4,2,2.7,2c1.2,0,2.3-0.8,2.7-2c0.2-0.5,0.7-0.9,1.3-0.9h0.7
	c0.6,0,1.1,0.3,1.3,0.9c0.4,1.1,1.4,2,2.7,2c1.2,0,2.4-0.8,2.7-2c0.2-0.5,0.7-0.9,1.3-0.9h0.7c0.6,0,1.1,0.3,1.3,0.9
	c0.4,1.1,1.4,2,2.7,2s2.4-0.8,2.7-2c0.2-0.5,0.7-0.9,1.3-0.9h0.7c0.6,0,1.1,0.3,1.3,0.9c0.4,1.1,1.4,2,2.7,2s2.4-0.8,2.7-2
	c0.2-0.5,0.7-0.9,1.3-0.9h0.7c0.6,0,1.1,0.3,1.3,0.9c0.4,1.1,1.4,2,2.7,2c1.2,0,2.4-0.8,2.7-2c0.2-0.5,0.7-0.9,1.3-0.9h0.7
	c0.2,0,0.4,0,0.6,0.1"/>
</svg>
